<mxfile host="Electron" agent="Mozilla/5.0 (Windows NT 10.0; Win64; x64) AppleWebKit/537.36 (KHTML, like Gecko) draw.io/27.0.2 Chrome/134.0.6998.205 Electron/35.3.0 Safari/537.36" version="27.0.2">
  <diagram name="Page-1" id="4nlSEkyfn0LVpfuR6QDG">
    <mxGraphModel dx="1665" dy="875" grid="1" gridSize="10" guides="1" tooltips="1" connect="1" arrows="1" fold="1" page="1" pageScale="1" pageWidth="850" pageHeight="1100" math="0" shadow="0">
      <root>
        <mxCell id="0" />
        <mxCell id="1" parent="0" />
        <mxCell id="kqi3wsgpCVCEMRBdIT-O-10" style="edgeStyle=orthogonalEdgeStyle;rounded=0;orthogonalLoop=1;jettySize=auto;html=1;exitX=0;exitY=0.5;exitDx=0;exitDy=0;entryX=1;entryY=0.5;entryDx=0;entryDy=0;" edge="1" parent="1" source="kqi3wsgpCVCEMRBdIT-O-1" target="kqi3wsgpCVCEMRBdIT-O-9">
          <mxGeometry relative="1" as="geometry" />
        </mxCell>
        <mxCell id="kqi3wsgpCVCEMRBdIT-O-1" value="Jela" style="rounded=0;whiteSpace=wrap;html=1;" vertex="1" parent="1">
          <mxGeometry x="380" y="80" width="120" height="60" as="geometry" />
        </mxCell>
        <mxCell id="kqi3wsgpCVCEMRBdIT-O-2" value="Stolovi" style="rounded=0;whiteSpace=wrap;html=1;" vertex="1" parent="1">
          <mxGeometry x="670" y="340" width="120" height="60" as="geometry" />
        </mxCell>
        <mxCell id="kqi3wsgpCVCEMRBdIT-O-12" style="edgeStyle=orthogonalEdgeStyle;rounded=0;orthogonalLoop=1;jettySize=auto;html=1;exitX=0.5;exitY=0;exitDx=0;exitDy=0;entryX=0.5;entryY=1;entryDx=0;entryDy=0;" edge="1" parent="1" source="kqi3wsgpCVCEMRBdIT-O-3" target="kqi3wsgpCVCEMRBdIT-O-6">
          <mxGeometry relative="1" as="geometry" />
        </mxCell>
        <mxCell id="kqi3wsgpCVCEMRBdIT-O-14" style="edgeStyle=orthogonalEdgeStyle;rounded=0;orthogonalLoop=1;jettySize=auto;html=1;exitX=0.5;exitY=1;exitDx=0;exitDy=0;entryX=0.5;entryY=0;entryDx=0;entryDy=0;" edge="1" parent="1" source="kqi3wsgpCVCEMRBdIT-O-3" target="kqi3wsgpCVCEMRBdIT-O-7">
          <mxGeometry relative="1" as="geometry" />
        </mxCell>
        <mxCell id="kqi3wsgpCVCEMRBdIT-O-16" style="edgeStyle=orthogonalEdgeStyle;rounded=0;orthogonalLoop=1;jettySize=auto;html=1;exitX=1;exitY=0.5;exitDx=0;exitDy=0;entryX=0;entryY=0.5;entryDx=0;entryDy=0;" edge="1" parent="1" source="kqi3wsgpCVCEMRBdIT-O-3" target="kqi3wsgpCVCEMRBdIT-O-8">
          <mxGeometry relative="1" as="geometry" />
        </mxCell>
        <mxCell id="kqi3wsgpCVCEMRBdIT-O-3" value="Narudzbe" style="rounded=0;whiteSpace=wrap;html=1;" vertex="1" parent="1">
          <mxGeometry x="380" y="340" width="120" height="60" as="geometry" />
        </mxCell>
        <mxCell id="kqi3wsgpCVCEMRBdIT-O-4" value="Konobari" style="rounded=0;whiteSpace=wrap;html=1;" vertex="1" parent="1">
          <mxGeometry x="380" y="580" width="120" height="60" as="geometry" />
        </mxCell>
        <mxCell id="kqi3wsgpCVCEMRBdIT-O-5" value="Kategorija jela" style="rounded=0;whiteSpace=wrap;html=1;" vertex="1" parent="1">
          <mxGeometry x="30" y="80" width="120" height="60" as="geometry" />
        </mxCell>
        <mxCell id="kqi3wsgpCVCEMRBdIT-O-13" style="edgeStyle=orthogonalEdgeStyle;rounded=0;orthogonalLoop=1;jettySize=auto;html=1;exitX=0.5;exitY=0;exitDx=0;exitDy=0;entryX=0.5;entryY=1;entryDx=0;entryDy=0;" edge="1" parent="1" source="kqi3wsgpCVCEMRBdIT-O-6" target="kqi3wsgpCVCEMRBdIT-O-1">
          <mxGeometry relative="1" as="geometry" />
        </mxCell>
        <mxCell id="kqi3wsgpCVCEMRBdIT-O-6" value="imaju" style="rhombus;whiteSpace=wrap;html=1;" vertex="1" parent="1">
          <mxGeometry x="400" y="200" width="80" height="80" as="geometry" />
        </mxCell>
        <mxCell id="kqi3wsgpCVCEMRBdIT-O-15" style="edgeStyle=orthogonalEdgeStyle;rounded=0;orthogonalLoop=1;jettySize=auto;html=1;exitX=0.5;exitY=1;exitDx=0;exitDy=0;entryX=0.5;entryY=0;entryDx=0;entryDy=0;" edge="1" parent="1" source="kqi3wsgpCVCEMRBdIT-O-7" target="kqi3wsgpCVCEMRBdIT-O-4">
          <mxGeometry relative="1" as="geometry" />
        </mxCell>
        <mxCell id="kqi3wsgpCVCEMRBdIT-O-7" value="imaju" style="rhombus;whiteSpace=wrap;html=1;" vertex="1" parent="1">
          <mxGeometry x="400" y="440" width="80" height="80" as="geometry" />
        </mxCell>
        <mxCell id="kqi3wsgpCVCEMRBdIT-O-17" style="edgeStyle=orthogonalEdgeStyle;rounded=0;orthogonalLoop=1;jettySize=auto;html=1;exitX=1;exitY=0.5;exitDx=0;exitDy=0;entryX=0;entryY=0.5;entryDx=0;entryDy=0;" edge="1" parent="1" source="kqi3wsgpCVCEMRBdIT-O-8" target="kqi3wsgpCVCEMRBdIT-O-2">
          <mxGeometry relative="1" as="geometry" />
        </mxCell>
        <mxCell id="kqi3wsgpCVCEMRBdIT-O-8" value="imaju" style="rhombus;whiteSpace=wrap;html=1;" vertex="1" parent="1">
          <mxGeometry x="550" y="330" width="80" height="80" as="geometry" />
        </mxCell>
        <mxCell id="kqi3wsgpCVCEMRBdIT-O-11" style="edgeStyle=orthogonalEdgeStyle;rounded=0;orthogonalLoop=1;jettySize=auto;html=1;exitX=0;exitY=0.5;exitDx=0;exitDy=0;" edge="1" parent="1" source="kqi3wsgpCVCEMRBdIT-O-9" target="kqi3wsgpCVCEMRBdIT-O-5">
          <mxGeometry relative="1" as="geometry" />
        </mxCell>
        <mxCell id="kqi3wsgpCVCEMRBdIT-O-9" value="imaju" style="rhombus;whiteSpace=wrap;html=1;" vertex="1" parent="1">
          <mxGeometry x="220" y="70" width="80" height="80" as="geometry" />
        </mxCell>
      </root>
    </mxGraphModel>
  </diagram>
</mxfile>
